<?xml version="1.0" standalone="no"?>
<!DOCTYPE svg PUBLIC "-//W3C//DTD SVG 20010904//EN"
 "http://www.w3.org/TR/2001/REC-SVG-20010904/DTD/svg10.dtd">
<svg version="1.0" xmlns="http://www.w3.org/2000/svg"
 width="600.000000pt" height="600.000000pt" viewBox="0 0 600.000000 600.000000"
 preserveAspectRatio="xMidYMid meet">
<metadata>
Created by potrace 1.14, written by Peter Selinger 2001-2017
</metadata>
<g transform="translate(0.000000,600.000000) scale(0.100000,-0.100000)"
fill="#000000" stroke="none">
<path d="M1733 5564 c10 -96 103 -259 177 -311 l35 -25 -30 7 c-60 13 -181 67
-235 103 -30 20 -74 62 -99 92 -24 30 -47 56 -50 58 -12 5 -71 -103 -96 -178
-52 -148 -66 -222 -72 -361 -9 -224 33 -360 162 -511 l65 -78 -43 17 c-23 9
-62 29 -86 45 -35 23 -46 27 -53 16 -5 -7 -7 -62 -4 -123 9 -178 49 -311 122
-401 l44 -54 -15 -100 c-27 -181 -21 -201 72 -249 l57 -28 2 -144 c3 -229 41
-369 173 -640 43 -90 114 -236 156 -324 42 -88 85 -170 97 -182 11 -12 41 -31
68 -42 66 -28 276 -69 397 -77 l101 -7 12 -46 c7 -25 14 -52 16 -58 2 -7 -20
3 -49 22 -29 19 -83 47 -122 62 -60 23 -85 27 -175 27 -120 1 -147 -9 -241
-89 -37 -32 -73 -51 -119 -65 -77 -23 -144 -63 -203 -123 -34 -34 -64 -50
-147 -81 -150 -55 -335 -145 -407 -199 -157 -117 -280 -339 -358 -646 -28
-112 -67 -348 -90 -544 -15 -132 -37 -214 -79 -296 l-17 -31 2491 0 2490 0 0
153 c0 578 -127 931 -417 1169 -85 69 -212 150 -301 192 -44 21 -64 37 -71 56
-14 42 -69 98 -153 157 -91 64 -149 125 -248 263 -41 57 -88 111 -104 121 -41
25 -135 25 -268 -1 -56 -11 -105 -16 -109 -12 -9 9 -35 189 -44 302 -11 135
23 395 53 414 4 2 23 7 43 11 33 6 37 5 43 -20 10 -38 40 -30 44 12 3 28 11
37 60 63 207 110 342 314 342 517 0 34 7 54 28 82 149 195 234 453 234 710 0
138 -20 242 -69 365 -65 163 -138 270 -274 402 -125 120 -225 192 -366 262
-59 30 -92 54 -124 93 -68 82 -230 151 -454 196 -73 14 -140 18 -355 17 -245
0 -281 -2 -475 -31 -261 -39 -401 -48 -527 -34 -119 14 -196 38 -334 106
l-107 53 6 -54z m279 -1278 c193 -74 461 -88 683 -36 22 5 41 7 43 6 4 -5 -64
-44 -158 -92 l-75 -38 74 -17 c165 -40 403 -33 596 16 110 28 182 59 276 120
39 25 73 45 74 43 2 -2 13 -28 25 -58 50 -128 169 -312 280 -432 79 -86 178
-157 266 -190 32 -12 60 -22 62 -23 1 -1 -12 -17 -29 -36 -38 -41 -21 -51 26
-14 47 35 114 65 149 65 49 0 108 -22 101 -38 -9 -23 14 -43 35 -32 23 12 44
-11 35 -39 -4 -13 0 -23 11 -29 40 -22 24 -174 -30 -279 -51 -102 -161 -209
-270 -265 l-39 -20 -17 22 c-20 27 -40 19 -40 -15 0 -31 -5 -34 -101 -48 l-81
-11 -72 -111 c-43 -66 -95 -130 -129 -161 -125 -111 -479 -284 -824 -401
l-138 -48 -150 1 c-159 0 -273 19 -398 65 -57 21 -59 24 -96 98 -21 42 -64
132 -96 201 -31 69 -88 190 -125 270 -65 139 -105 252 -130 370 -16 76 -26
315 -13 323 5 4 72 -10 149 -29 140 -35 312 -54 368 -40 38 9 71 80 96 210
l12 59 71 -5 c85 -6 161 -38 153 -66 -14 -48 -27 -178 -21 -211 12 -69 47 -94
204 -140 212 -63 528 -112 743 -114 175 -3 184 5 240 193 15 52 33 130 40 173
10 67 9 80 -4 93 -19 19 -301 94 -398 105 -41 5 -136 20 -210 33 l-135 24 90
1 c50 1 128 -6 175 -14 47 -8 92 -15 100 -14 21 0 -24 19 -85 34 -46 12 -31
13 160 14 158 1 205 4 191 13 -29 17 -198 26 -606 34 -343 7 -374 6 -362 -9
12 -14 9 -16 -30 -19 -42 -3 -43 -4 -61 -54 l-19 -52 -59 24 c-34 14 -79 24
-108 24 l-50 0 -3 57 -3 58 -65 23 c-36 13 -78 36 -95 53 l-30 30 47 -22 c26
-13 51 -20 54 -16 13 12 -26 44 -89 75 -205 100 -348 163 -359 160 -13 -5 80
-62 180 -112 30 -15 51 -30 48 -33 -3 -4 13 -18 36 -31 24 -14 54 -34 68 -45
l25 -20 -40 7 c-47 9 -124 74 -102 88 7 5 2 8 -15 8 -15 0 -30 5 -33 10 -10
17 -43 11 -96 -15 -38 -20 -58 -24 -84 -19 l-35 6 0 158 0 157 43 11 c57 14
100 9 179 -22z m-137 -451 c32 -93 35 -95 30 -19 l-6 72 73 -15 c113 -24 118
-29 118 -128 0 -104 14 -178 41 -216 27 -39 44 -37 91 11 38 38 40 42 36 94
-2 43 0 52 10 44 17 -14 16 3 -3 39 -8 15 -17 42 -21 58 -5 26 -7 27 -13 11
-7 -18 -8 -18 -24 4 -9 13 -15 26 -12 28 2 2 36 -6 75 -17 l72 -22 -7 -37 c-4
-20 -16 -47 -27 -61 -18 -23 -18 -26 -4 -29 10 -2 15 -10 12 -20 -2 -9 -10
-42 -17 -72 -16 -75 -47 -138 -70 -145 -48 -16 -489 74 -489 99 0 16 42 369
45 382 2 8 15 9 37 5 30 -6 35 -13 53 -66z m-200 -52 c31 -33 44 -54 41 -68
-3 -11 -8 -54 -12 -95 -3 -41 -8 -78 -11 -82 -5 -10 -75 25 -93 47 -20 24 -1
245 22 245 4 0 29 -21 53 -47z m1335 -23 c34 -11 -89 -11 -150 -1 -39 7 -34 9
40 9 47 0 96 -4 110 -8z m-870 -20 c0 -11 -4 -20 -10 -20 -5 0 -10 9 -10 20 0
11 5 20 10 20 6 0 10 -9 10 -20z m675 -50 c28 -5 77 -12 110 -16 81 -9 98 -19
44 -28 -24 -4 -54 -9 -66 -12 -18 -5 -21 -2 -16 15 8 31 -2 26 -26 -12 -15
-25 -34 -38 -78 -53 l-58 -19 48 -3 c26 -2 47 -5 47 -8 0 -3 -7 -16 -16 -29
-23 -35 -8 -31 45 13 l45 37 138 3 138 4 0 -56 c0 -75 17 -149 44 -188 62 -93
190 3 203 153 l6 61 56 -7 c31 -4 58 -8 59 -10 10 -9 -14 -49 -54 -91 -25 -25
-43 -49 -40 -52 4 -3 51 25 105 61 99 68 112 72 170 61 32 -7 32 -8 25 -48
-12 -73 -44 -185 -68 -240 -22 -49 -28 -56 -62 -62 -105 -20 -424 17 -718 82
-171 38 -257 66 -277 90 -23 28 -10 201 18 229 9 10 13 26 10 41 -2 14 0 43 6
65 l10 39 51 -6 c28 -3 74 -9 101 -14z m421 -161 c3 -6 1 -16 -5 -22 -9 -9
-14 -8 -21 3 -9 15 -4 30 10 30 5 0 12 -5 16 -11z m729 -726 c-47 -123 -58
-372 -26 -599 23 -160 46 -263 76 -329 l18 -40 6 32 6 33 53 -37 53 -38 -44
-40 c-49 -45 -244 -188 -387 -284 -52 -35 -141 -97 -196 -137 -126 -92 -182
-118 -326 -151 -148 -35 -386 -39 -513 -9 -127 30 -176 55 -212 112 -70 109
-112 215 -130 327 -11 67 -13 110 -7 116 5 5 86 30 179 56 94 26 178 52 188
57 9 5 17 7 17 6 0 -2 7 -61 15 -133 8 -71 15 -133 15 -137 0 -5 4 -8 9 -8 17
0 23 118 11 229 -10 98 -24 169 -45 239 -6 17 -3 22 11 22 62 0 424 138 667
254 296 141 404 233 506 434 15 29 28 42 42 42 16 0 19 -4 14 -17z m-1211
-1650 c113 -17 296 -12 404 10 34 8 62 12 62 10 0 -11 -197 -94 -275 -116
-155 -43 -150 -43 -209 -4 -30 20 -80 60 -112 91 l-59 55 44 -15 c24 -8 90
-22 145 -31z m-1041 -92 c62 -16 138 -36 170 -46 57 -16 57 -17 57 -55 0 -41
-20 -70 -48 -70 -13 -1 -11 -4 6 -13 l23 -13 -26 -40 c-46 -67 -37 -67 -244
-13 -251 65 -241 60 -241 106 0 40 24 94 68 151 25 33 28 34 75 28 26 -4 99
-20 160 -35z"/>
<path d="M4302 3489 c-75 -38 -161 -178 -213 -351 -30 -98 -18 -106 19 -13 44
110 94 205 105 198 16 -10 37 -71 37 -107 0 -24 -13 -53 -46 -100 -44 -66 -45
-67 -16 -52 43 22 88 79 96 120 9 47 -8 106 -39 140 -14 15 -25 32 -25 37 0
21 98 107 130 114 96 21 105 -144 16 -312 -35 -65 -34 -79 1 -40 67 72 112
246 83 321 -25 66 -74 81 -148 45z"/>
<path d="M2148 3164 c-14 -13 -8 -65 9 -95 11 -18 40 -41 73 -57 46 -23 67
-27 130 -25 41 1 89 6 105 11 24 8 11 10 -70 11 -82 1 -109 5 -150 25 -62 28
-77 47 -84 98 -3 22 -9 36 -13 32z"/>
<path d="M2129 2773 l-47 -4 42 -77 c72 -135 232 -272 317 -272 81 0 211 65
275 138 35 40 86 141 80 157 -5 15 -64 55 -79 55 -5 0 -5 -5 -1 -11 4 -8 -3
-9 -22 -5 -94 20 -416 31 -565 19z m468 -43 c122 -11 155 -19 150 -34 -8 -26
-101 -37 -272 -33 -185 5 -226 14 -277 59 l-33 29 165 -6 c91 -4 211 -10 267
-15z m113 -121 c-17 -31 -103 -101 -153 -125 -81 -37 -140 -33 -213 15 -32 21
-70 50 -83 64 -48 53 -11 62 253 62 182 0 203 -2 196 -16z"/>
</g>
</svg>
